<?xml version="1.0" encoding="UTF-8"?><svg id="Layer_2" xmlns="http://www.w3.org/2000/svg" viewBox="0 0 90.34 23.77"><defs><style>.cls-1,.cls-2{stroke-width:0px;}.cls-2{fill:#a100ff;}</style></defs><g id="Layer_1-2"><polygon class="cls-2" points="52.58 6.63 57.78 4.7 52.58 2.71 52.58 0 61.48 3.59 61.48 5.81 52.58 9.4 52.58 6.63"/><path class="cls-1" d="m3.43,23.77c-1.88,0-3.43-.94-3.43-3.04v-.11c0-2.54,2.21-3.43,4.92-3.43h1.27v-.5c0-1.05-.44-1.66-1.55-1.66-1,0-1.49.55-1.55,1.33H.33c.22-2.32,2.05-3.43,4.48-3.43s4.31,1.05,4.31,3.65v6.97h-2.82v-1.22c-.55.77-1.49,1.44-2.87,1.44Zm2.76-3.65v-1h-1.16c-1.44,0-2.16.39-2.16,1.33v.11c0,.72.44,1.22,1.44,1.22,1-.06,1.88-.61,1.88-1.66Zm9.51,3.65c-2.87,0-4.98-1.77-4.98-5.31v-.17c0-3.54,2.21-5.42,4.98-5.42,2.38,0,4.31,1.22,4.53,3.93h-2.76c-.17-1-.72-1.66-1.71-1.66-1.22,0-2.1,1-2.1,3.04v.33c0,2.1.77,3.04,2.1,3.04,1,0,1.71-.72,1.88-1.88h2.65c-.17,2.43-1.77,4.09-4.59,4.09Zm10.84,0c-2.87,0-4.98-1.77-4.98-5.31v-.17c0-3.54,2.21-5.42,4.98-5.42,2.38,0,4.31,1.22,4.53,3.93h-2.76c-.17-1-.72-1.66-1.71-1.66-1.22,0-2.1,1-2.1,3.04v.33c0,2.1.77,3.04,2.1,3.04,1,0,1.71-.72,1.88-1.88h2.65c-.17,2.43-1.77,4.09-4.59,4.09Zm10.89,0c-2.99,0-5.03-1.77-5.03-5.25v-.22c0-3.48,2.16-5.42,4.98-5.42,2.6,0,4.75,1.44,4.75,4.92v1.27h-6.8c.11,1.88.94,2.6,2.16,2.6,1.11,0,1.71-.61,1.94-1.33h2.71c-.33,1.94-1.99,3.43-4.7,3.43Zm-2.05-6.63h3.87c-.06-1.55-.77-2.21-1.94-2.21-.88.06-1.71.55-1.94,2.21Zm8.51-3.98h2.93v1.55c.5-1,1.55-1.77,3.15-1.77,1.88,0,3.15,1.16,3.15,3.65v6.97h-2.93v-6.52c0-1.22-.5-1.77-1.55-1.77-1,0-1.82.61-1.82,1.94v6.36h-2.93v-10.39h0Zm14.6-3.15v3.15h1.99v2.16h-1.99v4.92c0,.77.33,1.16,1.05,1.16.44,0,.72-.06,1-.17v2.27c-.33.11-.94.22-1.66.22-2.27,0-3.32-1.05-3.32-3.15v-5.25h-1.22v-2.16h1.22v-1.94l2.93-1.22Zm12.94,13.55h-2.87v-1.55c-.5,1-1.49,1.77-3.04,1.77-1.88,0-3.26-1.16-3.26-3.59v-7.02h2.93v6.63c0,1.22.5,1.77,1.49,1.77s1.82-.66,1.82-1.94v-6.47h2.93v10.39Zm2.16-10.39h2.93v1.94c.61-1.38,1.6-2.05,3.15-2.05v2.87c-1.99,0-3.15.61-3.15,2.32v5.36h-2.93v-10.45Zm12,10.62c-2.99,0-5.03-1.77-5.03-5.25v-.22c0-3.48,2.16-5.42,4.98-5.42,2.6,0,4.75,1.44,4.75,4.92v1.27h-6.75c.11,1.88.94,2.6,2.16,2.6,1.11,0,1.71-.61,1.94-1.33h2.71c-.44,1.94-2.05,3.43-4.75,3.43Zm-2.1-6.63h3.93c-.06-1.55-.77-2.21-1.94-2.21-.88.06-1.71.55-1.99,2.21Z"/></g></svg>