<?xml version="1.0" encoding="UTF-8"?><svg id="Layer_2" xmlns="http://www.w3.org/2000/svg" viewBox="0 0 86.74 23.37"><defs><style>.cls-1{fill:#db0011;}.cls-1,.cls-2,.cls-3{stroke-width:0px;}.cls-3{fill:#fff;}</style></defs><g id="Layer_1-2"><rect class="cls-3" x="11.7" width="23.34" height="23.34"/><polygon class="cls-1" points="46.7 11.7 35.03 0 35.03 23.37 46.7 11.7"/><polygon class="cls-1" points="23.37 11.7 35.03 0 11.7 0 23.37 11.7"/><polygon class="cls-1" points="0 11.7 11.7 23.37 11.7 0 0 11.7"/><polygon class="cls-1" points="23.37 11.7 11.7 23.37 35.03 23.37 23.37 11.7"/><path class="cls-2" d="m56.95,12.38h-4.23v4.17h-2.11V6.78h2.11v4.01h4.23v-4.01h2.11v9.77h-2.11v-4.17Z"/><path class="cls-2" d="m64.17,16.75c-2.11,0-3.84-.85-3.87-3.18h2.11c.03,1.04.63,1.67,1.78,1.67.85,0,1.84-.44,1.84-1.4,0-.77-.66-.99-1.76-1.32l-.71-.19c-1.54-.44-3.08-1.04-3.08-2.8,0-2.17,2.03-2.91,3.87-2.91s3.54.66,3.57,2.83h-2.11c-.08-.88-.6-1.4-1.59-1.4-.8,0-1.57.41-1.57,1.29,0,.71.66.93,2.03,1.37l.82.25c1.67.52,2.75,1.1,2.75,2.75-.03,2.2-2.17,3.05-4.09,3.05Z"/><path class="cls-2" d="m69.44,6.81h3.4c.63-.03,1.29,0,1.92.11,1.18.27,2.09,1.04,2.09,2.36s-.8,1.89-1.95,2.2c1.32.25,2.31.91,2.31,2.36,0,2.22-2.2,2.72-3.9,2.72h-3.84l-.03-9.75Zm3.4,4.06c.93,0,1.89-.19,1.89-1.32,0-1.02-.88-1.29-1.76-1.29h-1.48v2.61h1.35Zm.19,4.23c.99,0,1.95-.22,1.95-1.43s-.82-1.43-1.84-1.43h-1.67v2.86h1.57Z"/><path class="cls-2" d="m82.7,16.75c-3.16,0-4.56-2-4.56-5s1.57-5.16,4.67-5.16c1.95,0,3.84.88,3.9,3.08h-2.2c-.11-.99-.77-1.48-1.7-1.48-1.92,0-2.5,2.06-2.5,3.62s.58,3.38,2.42,3.38c.96,0,1.67-.52,1.81-1.51h2.2c-.22,2.25-2,3.08-4.04,3.08Z"/></g></svg>