<?xml version="1.0" encoding="UTF-8"?><svg id="Layer_2" xmlns="http://www.w3.org/2000/svg" viewBox="0 0 55.4 22.37"><defs><style>.cls-1{fill:#4c81c2;stroke-width:0px;}</style></defs><g id="Layer_1-2"><polygon class="cls-1" points="55.4 1.59 46.18 1.59 46.75 0 55.4 0 55.4 1.59"/><path class="cls-1" d="m30.82,0h8.56s.56,1.59.56,1.59c0,0-9.12,0-9.12,0,0,0,0-1.59,0-1.59Z"/><path class="cls-1" d="m24.02,0c1.41.14,2.64.64,3.68,1.59,0,0-15.52,0-15.52,0V0h11.84Z"/><rect class="cls-1" x="0" y="0" width="10.78" height="1.59"/><polygon class="cls-1" points="55.4 4.57 45.12 4.57 45.68 2.99 55.4 2.99 55.4 4.57"/><polygon class="cls-1" points="41 4.58 30.82 4.58 30.82 2.99 40.44 2.99 41 4.58"/><path class="cls-1" d="m28.91,2.99c.2.52.45.97.45,1.58H12.18v-1.58h16.73Z"/><rect class="cls-1" x="0" y="2.99" width="10.78" height="1.58"/><polygon class="cls-1" points="44.07 7.57 44.64 5.98 52.35 5.98 52.35 7.56 44.07 7.57"/><polygon class="cls-1" points="41.5 5.97 42.06 7.57 33.85 7.57 33.85 5.97 41.5 5.97"/><path class="cls-1" d="m29.49,5.97c0,.55-.07,1.11-.23,1.59h-4.7v-1.59h4.93Z"/><rect class="cls-1" x="3.01" y="5.98" width="4.63" height="1.58"/><rect class="cls-1" x="15.3" y="5.97" width="4.63" height="1.59"/><polygon class="cls-1" points="38.41 9.28 38.41 10.49 33.85 10.49 33.85 8.91 42.54 8.91 43.08 10.38 43.6 8.91 52.35 8.91 52.35 10.49 47.82 10.49 47.81 9.28 47.39 10.49 38.83 10.49 38.41 9.28"/><path class="cls-1" d="m15.3,8.91h13.28c-.29.53-.82,1.17-1.32,1.58,0,0-11.96,0-11.96,0,0,0,0-1.58,0-1.58Z"/><rect class="cls-1" x="3.01" y="8.9" width="4.63" height="1.58"/><rect class="cls-1" x="47.82" y="11.89" width="4.53" height="1.58"/><path class="cls-1" d="m38.41,11.89h-4.56v1.58s4.56,0,4.56,0c0,0,0-1.58,0-1.58Z"/><path class="cls-1" d="m46.9,11.89s-.53,1.58-.55,1.58h-6.46s-.57-1.58-.57-1.58h7.58Z"/><path class="cls-1" d="m15.3,11.89h11.94c.55.45,1.04,1.01,1.42,1.58.02,0-13.36,0-13.36,0,0,0,0-1.58,0-1.58Z"/><polygon class="cls-1" points="7.64 13.47 7.64 11.89 3.01 11.89 3.01 13.47 7.64 13.47"/><rect class="cls-1" x="47.82" y="14.87" width="4.53" height="1.58"/><rect class="cls-1" x="33.85" y="14.87" width="4.56" height="1.58"/><path class="cls-1" d="m45.29,16.46s.56-1.59.57-1.59h-5.49s.56,1.58.56,1.58c0,0,4.36.01,4.36,0Z"/><path class="cls-1" d="m15.3,16.45s0-1.58,0-1.58h4.7s0,1.58,0,1.58c0,0-4.7,0-4.7,0Z"/><path class="cls-1" d="m29.33,14.87c.23.48.25,1.04.3,1.59h-4.97v-1.59h4.68Z"/><rect class="cls-1" x="3.01" y="14.87" width="4.63" height="1.58"/><rect class="cls-1" x="47.82" y="17.79" width="7.59" height="1.58"/><rect class="cls-1" x="30.82" y="17.79" width="7.59" height="1.58"/><polygon class="cls-1" points="44.27 19.38 41.95 19.38 41.39 17.79 44.8 17.79 44.27 19.38"/><path class="cls-1" d="m0,17.79v1.58h10.77s0-1.58,0-1.58c0,0-10.79,0-10.77,0Z"/><path class="cls-1" d="m29.42,17.79c-.11.52-.22,1.16-.6,1.58h-.14s-16.5,0-16.5,0v-1.58h17.24Z"/><polygon class="cls-1" points="43.22 22.36 43 22.36 42.46 20.78 43.77 20.78 43.22 22.36"/><rect class="cls-1" x="47.82" y="20.78" width="7.59" height="1.59"/><path class="cls-1" d="m12.18,22.36v-1.58s15.57,0,15.61,0c-1.05,1-2.48,1.56-4.02,1.59h-11.59"/><rect class="cls-1" x="30.82" y="20.78" width="7.59" height="1.59"/><path class="cls-1" d="m10.78,20.78s0,1.58,0,1.58c0,0-10.77,0-10.77,0,0,0,0-1.59,0-1.59s10.77,0,10.77,0Z"/></g></svg>