<?xml version="1.0" encoding="UTF-8"?><svg id="Layer_2" xmlns="http://www.w3.org/2000/svg" viewBox="0 0 77.38 23.26"><defs><style>.cls-1{fill:#fff;}.cls-1,.cls-2,.cls-3{fill-rule:evenodd;stroke-width:0px;}.cls-2{fill:#003874;}.cls-3{fill:#ed1c24;}</style></defs><g id="Layer_1-2"><path class="cls-2" d="m0,11.63C0,5.21,6.05,0,13.52,0s13.52,5.21,13.52,11.63-6.05,11.63-13.52,11.63S0,18.06,0,11.63"/><path class="cls-3" d="m11.88,3.74l3.14-1.04.02,16.99-3.17,1.06V3.74m32.7,14.62c3.02,0,5.32-1.76,5.32-4.78s-2.3-4.8-5.32-4.8-5.32,1.75-5.32,4.8,2.3,4.78,5.32,4.78Zm0-2.21c-1.46,0-2.05-1.21-2.05-2.57s.59-2.58,2.05-2.58,2.05,1.21,2.05,2.58-.59,2.57-2.05,2.57m5.03-4.94h1.81v3.72c0,2.18.68,3.42,3.51,3.42.79,0,1.39-.1,1.99-.18l-.1-2.05c-.32.05-.65.12-.96.12-1,0-1.26-.56-1.26-1.67v-3.37h2.21v-2.21h-2.21v-3.16s-3.11,1.11-3.11,1.11v2.06h-1.86v2.21m18.24,6.94h3.16v-4.53h.03l2.53,4.53h3.82l-3.44-4.95,3.18-4.2h-3.46l-2.63,3.85h-.03v-7l-3.16,1.1v11.21"/><path class="cls-3" d="m30.84,18.15h3.16v-4.53h.03l2.53,4.53h3.83l-3.44-4.95,3.18-4.2h-3.46l-2.63,3.85h-.03v-7l-3.16,1.04v11.26m35.87.04c-.14-.73-.18-1.46-.18-2.19v-3.45c0-2.83-2.04-3.84-4.41-3.84-1.37,0-2.56.19-3.69.66l.05,2.17c.89-.5,1.92-.7,2.95-.7,1.16,0,2.1.34,2.11,1.6-.49-.08-.99-.12-1.49-.12-1.7,0-4.78.34-4.78,3.16,0,2.01,1.63,2.91,3.46,2.91,1.31,0,2.2-.52,2.93-1.67h.04c0,.48.05.96.07,1.46h2.93,0Zm-6.45-2.93c0-.89.85-1.23,1.94-1.23.48,0,.94.04,1.35.05,0,1.08-.76,2.19-1.97,2.19-.75,0-1.32-.37-1.32-1.01"/><path class="cls-1" d="m23.7,12.8c-.29,2.43-1.66,4.88-4.63,4.89-1.74,0-3.09-1.19-4.03-2.64v-1.69c1.18.58,2.28,1.21,3.61,1.23,1.64.02,3.13-.61,3.74-1.79h1.32,0Zm-9.95,1.53c-1.37,1.65-2.68,3.33-5.16,3.33-3.49,0-5.15-3.38-5.15-6.2s1.29-5.92,4.7-5.92c1.48,0,2.9.9,3.74,1.86v2.3c-.71-.48-2.29-.94-3.33-.96-2.16-.04-4.06.9-4.03,3.03.02,1.47,1.47,2.46,2.92,2.46,2.21,0,3.55-2.02,4.67-3.56.45-.59.89-1.18,1.33-1.77,1.24-1.74,2.68-3.33,5.16-3.33,2.91,0,4.55,2.35,5.01,4.76h-1.32c-.53-.78-1.55-1.26-2.55-1.26-2.29,0-3.65,2.1-4.8,3.65l-1.21,1.6"/></g></svg>