<?xml version="1.0" encoding="UTF-8"?><svg id="Layer_2" xmlns="http://www.w3.org/2000/svg" viewBox="0 0 66.28 24.28"><defs><style>.cls-1{fill:#fff;}.cls-1,.cls-2{fill-rule:evenodd;stroke-width:0px;}.cls-2{fill:#cf4037;}</style></defs><g id="Layer_1-2"><path class="cls-2" d="m.95,8.9c-.62.91-.95,1.84-.95,2.8,0,3.05,3.31,6.02,8.77,8.33l1.72-11.14H.95Z"/><path class="cls-1" d="m15.15,8.9l.44-2.73H3.92c-1.29.85-2.29,1.78-2.97,2.73h9.54l-1.72,11.14c.89.36,1.82.72,2.8,1.04l1.87-12.18h1.7Z"/><path class="cls-2" d="m33.33,0C20.49,0,9.51,2.52,3.92,6.17h11.67l-.44,2.73h-1.7l-1.87,12.18c5.81,1.95,13.39,3.2,21.76,3.2,18.63,0,32.95-5.83,32.95-12.25S51.97,0,33.33,0h0Z"/><path class="cls-1" d="m17.61,20.85l-.19-.21c-.17.13-.39.21-.61.21-.62,0-1.13-.5-1.14-1.12,0,0,0-.01,0-.02,0-.62.51-1.14,1.14-1.14s1.14.51,1.14,1.14c0,.3-.13.61-.34.8l.34.34h-.34Zm-.19-.53c.17-.15.25-.4.25-.61,0-.47-.34-.87-.85-.87s-.87.4-.87.87c0,.48.39.87.87.87,0,0,0,0,0,0,.13,0,.3-.04.44-.11l-.51-.49h.34l.34.34h0Zm5.19-1.69v1.27c0,.36.09.68.51.68s.53-.32.53-.68v-1.27h.27v1.36c0,.47-.28.85-.8.85s-.8-.38-.8-.85v-1.36h.28Zm6.15,1.61l-.25.55h-.28l1.02-2.25,1.04,2.25h-.3l-.25-.55h-.98Zm.49-1.12l-.38.87h.78l-.4-.87Zm5.66,1.42h.64v.25h-.93v-2.16h.28v1.91Zm4.98.25h.27v-2.16h-.27v2.16Zm5.42,0h-.27v-1.91h-.51v-.25h1.31v.25h-.53v1.91Zm4.68-2.16h.3l.53.93.53-.93h.32l-.72,1.21v.95h-.27v-.95l-.7-1.21ZM19.56,5.98c3.01,0,3.71,3.05,3.3,5.8-.44,2.73-2.08,5.78-5.09,5.78s-3.71-3.05-3.28-5.78c.42-2.75,2.06-5.8,5.08-5.8Zm-1.36,8.75c1.12,0,1.51-2.27,1.63-2.95.11-.7.42-2.97-.7-2.97s-1.51,2.27-1.63,2.97c-.09.68-.42,2.95.7,2.95Zm9.01,2.63l-1.04-5.13h.02-.04l-.8,5.13h-2.97l1.74-11.19h2.97l-.74,4.77h-.02.02l-.04.02v-.02h.04l2.39-4.77h3.12l-3.22,5.4,1.76,5.8h-3.2Zm7.76,0l.7-4.54h-1.42l-.7,4.54h-2.97l1.74-11.19h2.97l-.63,4.02h1.4l.62-4.02h2.97l-1.74,11.19h-2.95Zm5.28-11.19h5.51l-.4,2.65h-2.56l-.23,1.55h2.27l-.4,2.63h-2.29l-.27,1.7h2.54l-.4,2.65h-5.51l1.72-11.19h0Zm4.36,11.19l1.74-11.19h2.97l-1.74,11.19h-2.97Zm11.67,0l.81-7.03h-.02c-.27.81-.49,1.63-.76,2.44l-1.57,4.58h-2.41l.06-7.03h-.02c-.15.81-.27,1.65-.44,2.46l-.95,4.56h-3.2l3.03-11.19h3.69l-.08,5.95h.02c.19-.68.38-1.36.61-2.06l1.33-3.88h3.65l-.68,11.19h-3.09s0,0,0,0Zm4.6-7.12c0-.89.72-1.53,1.55-1.53s1.57.64,1.57,1.53-.72,1.53-1.57,1.53c-.83,0-1.55-.64-1.55-1.53Zm1.55,1.27c.7,0,1.25-.53,1.25-1.27s-.55-1.29-1.25-1.29-1.25.55-1.25,1.29.55,1.27,1.25,1.27Zm-.32-.38h-.27v-1.78h.68c.42,0,.62.15.62.51,0,.3-.21.45-.45.47l.49.8h-.3l-.45-.78h-.32v.78h0Zm.32-1c.23,0,.44-.02.44-.28,0-.23-.19-.27-.38-.27h-.38v.55h.32,0Z"/></g></svg>